<?xml version="1.0" encoding="UTF-8"?>
<!DOCTYPE svg PUBLIC "-//W3C//DTD SVG 1.1//EN" "http://www.w3.org/Graphics/SVG/1.1/DTD/svg11.dtd">
<!-- Creator: CorelDRAW 2018 (64-Bit) -->
<svg xmlns="http://www.w3.org/2000/svg" xml:space="preserve" width="1.04166in" height="1.04166in" version="1.1" style="shape-rendering:geometricPrecision; text-rendering:geometricPrecision; image-rendering:optimizeQuality; fill-rule:evenodd; clip-rule:evenodd"
viewBox="0 0 130.86 130.86"
 xmlns:xlink="http://www.w3.org/1999/xlink">
 <defs>
  <style type="text/css">
   <![CDATA[
    .fil7 {fill:none}
    .fil4 {fill:#50B7E1;fill-rule:nonzero}
    .fil5 {fill:#5CA656;fill-rule:nonzero}
    .fil1 {fill:#696B6A;fill-rule:nonzero}
    .fil3 {fill:#A1D7EC;fill-rule:nonzero}
    .fil6 {fill:#E15F46;fill-rule:nonzero}
    .fil2 {fill:#F9D05F;fill-rule:nonzero}
    .fil0 {fill:white;fill-rule:nonzero}
   ]]>
  </style>
 </defs>
 <g id="Layer_x0020_1">
  <metadata id="CorelCorpID_0Corel-Layer"/>
  <g id="_2248724160000">
   <g>
    <g>
     <path class="fil0" d="M99.07 90.48c2.66,-0.02 5.33,0.01 7.99,-0.01 0.03,4.58 0,9.15 0.01,13.73 -0.01,2.04 0.02,4.07 -0.02,6.11 -1.38,-0 -2.76,-0.03 -4.14,0.01 -0.16,-0.34 -0.08,-0.72 -0.1,-1.08 0,-4.97 0,-9.95 0,-14.92 -1.25,-0.01 -2.5,0 -3.75,-0 -0,-1.28 0,-2.56 -0,-3.83z"/>
     <path class="fil0" d="M63.32 100.11c1.13,-0.4 2.35,-0.4 3.52,-0.19 1.34,0.36 2.63,1.23 3.19,2.54 0.57,1.33 0.49,2.92 -0.24,4.17 -0.93,1.55 -2.27,2.78 -3.51,4.08 -0.41,0.45 -0.9,0.84 -1.22,1.37 1.92,0.05 3.84,-0.02 5.76,0.02 -0.01,1.01 0,2.01 -0.01,3.02 -3.5,0 -7.01,-0.01 -10.51,0.01 -0.01,-0.76 -0.01,-1.52 -0.01,-2.29 -0.01,-0.17 0.02,-0.34 0.16,-0.45 1.23,-1.23 2.44,-2.47 3.64,-3.73 0.91,-0.9 1.83,-1.81 2.56,-2.86 0.52,-0.74 0.66,-1.87 0.02,-2.58 -0.51,-0.58 -1.4,-0.65 -2.08,-0.38 -0.82,0.37 -1.39,1.1 -1.86,1.84 -0.86,-0.45 -1.68,-0.98 -2.52,-1.46 -0.3,-0.11 -0.02,-0.39 0.08,-0.55 0.78,-1.07 1.75,-2.12 3.04,-2.56z"/>
     <path class="fil0" d="M24.29 106.56c2.38,0.01 4.75,-0 7.13,0 -0,0.6 -0,1.19 0,1.79 -0.7,0.78 -1.38,1.57 -2.07,2.35 -0.1,0.1 -0.15,0.24 -0.21,0.37 0.92,0.14 1.78,0.66 2.27,1.46 0.58,0.83 0.62,1.91 0.44,2.88 -0.24,1.2 -1.2,2.16 -2.33,2.58 -1.42,0.53 -3.04,0.43 -4.41,-0.18 -0.52,-0.21 -0.99,-0.52 -1.48,-0.79 0.23,-0.75 0.7,-1.4 1.02,-2.12 0.74,0.4 1.45,0.9 2.3,1.06 0.7,0.11 1.53,0.11 2.07,-0.42 0.6,-0.57 0.49,-1.66 -0.2,-2.11 -0.91,-0.62 -2.11,-0.46 -3.09,-0.12 -0.1,-0.24 -0.13,-0.49 -0.07,-0.74 0.07,-0.35 -0.05,-0.69 -0.02,-1.04 0.08,-0.35 0.38,-0.57 0.6,-0.84 0.53,-0.64 1.1,-1.25 1.6,-1.92 -1.19,-0 -2.37,-0.01 -3.55,0 -0.01,-0.74 -0.01,-1.48 -0.01,-2.22z"/>
    </g>
    <g>
     <path class="fil1" d="M38.66 11.6c0.07,0 0.2,0 0.26,-0 0.02,0.53 -0.01,1.07 0.07,1.6 0.57,0.01 1.18,0.19 1.52,0.68 0.51,-0.04 0.95,-0.29 1.34,-0.59 0.22,0.08 0.19,0.36 0.25,0.55 -0.04,0.73 -0.49,1.37 -1.01,1.85 -0.65,0.64 -1.61,0.75 -2.48,0.82 0.02,0.05 0.08,0.14 0.1,0.19 0.23,0.02 0.47,0.04 0.71,0.06 0.02,0.09 0.06,0.26 0.08,0.35 -0.79,0.07 -1.57,0.01 -2.35,-0.1 0.32,0.37 0.81,0.5 1.22,0.74 0.03,0.07 0.08,0.22 0.11,0.29 -0.82,0.08 -1.6,-0.15 -2.39,-0.34 0.04,0.79 0.08,1.63 -0.39,2.31 0.11,0.67 0.45,1.27 0.7,1.89 -0.18,-0 -0.38,0.06 -0.56,-0.01 -0.33,-0.32 -0.53,-0.75 -0.92,-1.01 -0.22,-0.15 -0.5,-0.14 -0.75,-0.19 -0.02,0.61 -0.13,1.26 0.12,1.84 0.21,0.5 0.39,1.13 1.01,1.22 0.1,0.85 -0.18,1.72 -0.81,2.3 -0.13,-0.07 -0.26,-0.14 -0.38,-0.21 -0.17,0.31 -0.35,0.61 -0.54,0.91 -0.12,-0.09 -0.23,-0.18 -0.35,-0.27 -0.27,0.24 -0.57,0.44 -0.86,0.65 -0.17,-0.58 -0.21,-1.21 -0.5,-1.75 -0.33,-0.68 -1.01,-1.09 -1.41,-1.72 -1.07,-1.57 -1.59,-3.53 -1.4,-5.43 0.14,-1.05 0.52,-2.1 1.3,-2.84 0.58,-0.66 1.49,-0.9 2.09,-1.54 0.4,-0.34 0.7,-0.77 0.89,-1.27 0.19,0.12 0.26,0.36 0.44,0.48 0.05,-0.09 0.15,-0.28 0.2,-0.37 0.12,0.12 0.2,0.27 0.23,0.45 0.42,-0.22 0.85,-0.42 1.31,-0.53 0.43,-0.1 0.93,0.1 1.29,-0.23 0.34,-0.15 0.57,-0.61 0.98,-0.56 -0.01,0.19 -0.02,0.39 -0.03,0.59 0.38,-0.19 0.64,-0.53 0.93,-0.82z"/>
     <path class="fil1" d="M38.58 59.74c1.48,-0.03 2.96,-0.04 4.44,-0.07 0.42,0.67 1,1.27 1.76,1.54 2.49,0.83 4.85,1.98 7.21,3.11 1.44,0.75 3.02,1.36 4.14,2.58 0.44,0.52 0.86,1.06 1.17,1.67 2.18,4.39 5.13,8.38 8.51,11.92 0.28,-0.19 0.56,0.01 0.81,0.15 0.27,0.17 0.57,0.31 0.8,0.54 0.24,0.34 0.05,0.75 -0.12,1.07 -0.64,1.18 -1.25,2.39 -1.92,3.55 -0.22,0.37 -0.41,0.97 -0.95,0.89 -0.56,-0.21 -1.09,-0.48 -1.62,-0.76 -0.24,-0.1 -0.29,-0.37 -0.39,-0.58 0.09,-0.18 0.18,-0.35 0.27,-0.53 -1.96,-1.24 -3.73,-2.75 -5.34,-4.42 -1.9,-1.91 -3.57,-4.04 -5.12,-6.24 -0.56,-0.76 -0.97,-1.69 -1.84,-2.17 -1.1,-0.7 -2.45,-0.42 -3.66,-0.31 -1.95,0.08 -3.9,0.06 -5.85,-0.01 -0.77,2.01 -1.61,4.01 -2.49,5.98 -0.57,1.34 -1.53,2.53 -2.76,3.32 -0.74,0.46 -1.51,0.88 -2.24,1.36 -2.86,1.81 -5.47,3.97 -7.9,6.31 -0.48,0.5 -1.01,0.96 -1.45,1.51 -0.17,0.16 -0.08,0.42 -0.11,0.63 -0.23,0.39 -0.37,0.83 -0.67,1.18 -0.39,0.29 -0.8,-0.03 -1.17,-0.15 -1.2,-0.52 -2.37,-1.09 -3.55,-1.65 -0.32,-0.18 -0.77,-0.28 -0.89,-0.68 -0.08,-0.48 0.24,-0.9 0.39,-1.33 0.16,-0.31 0.21,-0.73 0.57,-0.87 0.27,-0.07 0.54,0.04 0.8,0.11 0.96,-1.79 2.2,-3.42 3.53,-4.95 2.27,-2.55 4.84,-4.83 7.59,-6.86 0.9,-0.66 1.44,-1.78 1.37,-2.9 -0.22,-1.49 -0.41,-2.99 -0.51,-4.48 -1.86,-1.61 -3.21,-3.88 -3.5,-6.34 -0.11,-0.59 -0.02,-1.19 -0.16,-1.78 1.38,-0.18 2.78,-0.05 4.17,-0.12 2.23,-0.21 4.48,-0.03 6.71,-0.22z"/>
     <path class="fil1" d="M74.32 79.78c0.44,-0.14 0.95,-0.29 1.38,-0.03 0.35,0.34 0.22,0.9 0.16,1.33 -0.64,2.07 -2.14,3.72 -3.67,5.19 -1.07,0.97 -2.2,1.88 -3.41,2.67 -0.47,0.36 -1.24,0.34 -1.6,-0.17 -0.54,-0.67 -0.87,-1.52 -0.91,-2.38 1.55,0.22 2.91,-0.83 3.81,-1.98 -0.94,0.01 -1.63,-0.81 -1.78,-1.68 1.29,-0.33 2.47,-0.96 3.6,-1.65 0.77,-0.51 1.57,-0.97 2.43,-1.31z"/>
     <path class="fil1" d="M15.89 91.83c0.65,-0.55 1.48,-0.92 2.33,-1.02 -0.18,1.59 0.86,2.95 1.97,3.96 -0.04,-0.89 0.64,-1.73 1.54,-1.8 0.31,1.07 0.92,2.02 1.52,2.94 0.74,1.05 1.58,2.09 1.95,3.35 0.12,0.39 0.04,0.8 -0.22,1.12 -0.44,0.04 -0.89,0.05 -1.33,-0.02 -2.06,-0.67 -3.78,-2.06 -5.26,-3.6 -0.95,-1.04 -1.85,-2.12 -2.65,-3.28 -0.37,-0.48 -0.33,-1.27 0.16,-1.65z"/>
    </g>
    <g>
     <path class="fil2" d="M38.61 16.51c0.87,-0.07 1.83,-0.18 2.48,-0.82 0.7,0.67 0.67,1.68 0.78,2.56 0.07,0.58 -0.09,1.22 0.21,1.76 0.39,0.72 0.83,1.42 1.25,2.12 -0.28,0.34 -0.69,0.52 -1.05,0.74 0.08,0.32 0.11,0.64 0.18,0.96 -0.26,0.06 -0.51,0.13 -0.77,0.18 0.25,0.37 0.36,0.88 -0.05,1.19 0.04,0.52 0.17,1.03 0.14,1.55 0.01,0.39 -0.39,0.69 -0.75,0.69 -0.82,0.02 -1.63,-0.01 -2.45,0.05 -0.53,0.19 -0.87,0.76 -0.81,1.32 0.04,0.62 -0.05,1.25 0.09,1.87 -0.03,0.05 -0.1,0.14 -0.13,0.18 -1.31,-0.73 -2.73,-1.24 -4.15,-1.71 -0.37,-0.13 -0.74,-0.3 -1.14,-0.3 -0.13,-0.57 -0.14,-1.17 -0.09,-1.74 0.3,-0.2 0.59,-0.41 0.86,-0.65 0.12,0.09 0.23,0.18 0.35,0.27 0.19,-0.29 0.37,-0.6 0.54,-0.91 0.13,0.07 0.26,0.14 0.38,0.21 0.63,-0.59 0.91,-1.46 0.81,-2.3 -0.62,-0.09 -0.81,-0.72 -1.01,-1.22 -0.25,-0.58 -0.13,-1.23 -0.12,-1.84 0.25,0.05 0.53,0.04 0.75,0.19 0.38,0.26 0.59,0.69 0.92,1.01 0.18,0.06 0.37,0 0.56,0.01 -0.25,-0.63 -0.59,-1.22 -0.7,-1.89 0.47,-0.68 0.43,-1.52 0.39,-2.31 0.78,0.19 1.57,0.42 2.39,0.34 -0.03,-0.07 -0.09,-0.22 -0.11,-0.29 -0.41,-0.24 -0.89,-0.37 -1.22,-0.74 0.78,0.11 1.57,0.17 2.35,0.1 -0.02,-0.09 -0.06,-0.26 -0.08,-0.35 -0.24,-0.02 -0.47,-0.04 -0.71,-0.06 -0.02,-0.05 -0.07,-0.14 -0.1,-0.19z"/>
     <path class="fil2" d="M57.76 37.68c0.4,-0.17 0.46,0.51 0.83,0.46 0.26,0.03 0.56,-0.05 0.81,0.08 0.08,0.28 -0.09,0.57 -0.13,0.85 0.23,0.07 0.49,0.14 0.68,0.3 0.04,0.24 -0.06,0.48 -0.14,0.69 0.27,0.07 0.57,0.12 0.8,0.29 0.13,0.35 -0.25,0.52 -0.45,0.73 0.26,0.22 0.56,0.45 0.49,0.84 -0.76,0.49 -1.51,1 -2.27,1.48 -0.42,0.31 -0.98,0.24 -1.46,0.11 -0.51,-0.15 -1.09,-0.13 -1.55,0.15 -0.4,-0.79 -0.8,-1.58 -1.2,-2.37 0.62,-0.25 1.01,-0.87 1,-1.52 -0.05,-0.57 0.45,-0.98 0.92,-1.21 0.57,-0.28 1.11,-0.63 1.68,-0.89z"/>
     <path class="fil2" d="M16.53 57.64c0.34,-0.1 0.58,-0.37 0.82,-0.6 0.71,0.54 1.46,1.03 2.22,1.51 -0.34,0.55 -0.06,1.18 -0.01,1.76 0.03,0.57 -0.39,1 -0.72,1.42 -0.43,0.52 -0.8,1.09 -1.26,1.59 -0.39,0.23 -0.58,-0.3 -0.77,-0.54 -0.2,0.21 -0.44,0.36 -0.7,0.47 -0.21,-0.26 -0.27,-0.59 -0.33,-0.91 -0.23,0.09 -0.47,0.13 -0.72,0.13 -0.06,-0.23 -0.12,-0.45 -0.18,-0.68 -0.3,-0.01 -0.6,0.01 -0.89,0.05 -0.1,-0.3 -0.13,-0.63 0.02,-0.93 -0.13,-0.15 -0.26,-0.3 -0.4,-0.45 -0.1,-0.46 0.29,-0.8 0.5,-1.17 0.37,-0.51 0.61,-1.17 1.2,-1.48 0.38,-0.22 0.83,-0.1 1.24,-0.17z"/>
     <path class="fil2" d="M65.37 85.8c0.67,-1.17 1.28,-2.37 1.92,-3.55 0.34,0.14 0.67,0.3 0.99,0.49 0.15,0.87 0.85,1.69 1.78,1.68 -0.9,1.15 -2.26,2.2 -3.81,1.98 -0.3,-0.19 -0.59,-0.39 -0.89,-0.59z"/>
     <path class="fil2" d="M18.53 90.16c1.18,0.57 2.35,1.13 3.55,1.65l0.05 0.07c0.06,0.39 -0.28,0.73 -0.39,1.08 -0.9,0.07 -1.58,0.91 -1.54,1.8 -1.11,-1 -2.15,-2.37 -1.97,-3.96 0.05,-0.24 0.2,-0.43 0.31,-0.64z"/>
     <g>
      <path class="fil2" d="M47.71 92.01c0.88,-1.02 2.19,-1.62 3.54,-1.65 10.99,-0.01 21.99,0.01 32.99,-0.01 0,11.38 0,22.77 0,34.15 -12.53,0 -25.07,0 -37.6,0 -0.01,-8.05 0.01,-16.09 -0.01,-24.13 -0.01,-1.82 -0,-3.65 -0,-5.47 -0.01,-1.06 0.44,-2.07 1.09,-2.89zm15.62 8.11l0 0c-1.29,0.44 -2.26,1.49 -3.04,2.56 -0.1,0.16 -0.37,0.44 -0.08,0.55 0.84,0.48 1.66,1.01 2.52,1.46 0.47,-0.74 1.04,-1.47 1.86,-1.84 0.68,-0.28 1.57,-0.2 2.08,0.38 0.65,0.7 0.5,1.84 -0.02,2.58 -0.73,1.05 -1.65,1.96 -2.56,2.86 -1.19,1.26 -2.41,2.5 -3.64,3.73 -0.14,0.11 -0.18,0.28 -0.16,0.45 -0,0.76 -0,1.52 0.01,2.29 3.5,-0.02 7.01,-0 10.51,-0.01 0.01,-1.01 -0,-2.01 0.01,-3.02 -1.92,-0.04 -3.84,0.03 -5.76,-0.02 0.32,-0.53 0.81,-0.92 1.22,-1.37 1.24,-1.29 2.58,-2.53 3.51,-4.08 0.73,-1.25 0.81,-2.84 0.24,-4.17 -0.56,-1.31 -1.85,-2.18 -3.19,-2.54 -1.16,-0.21 -2.39,-0.21 -3.52,0.19z"/>
     </g>
    </g>
    <g>
     <path class="fil3" d="M31.9 28.96c0.16,-0.09 0.36,-0.08 0.54,-0.1 0.4,-0 0.77,0.17 1.14,0.3 1.42,0.46 2.84,0.97 4.15,1.71 0.03,-0.05 0.1,-0.14 0.13,-0.18 0.01,0.11 0.02,0.22 0.02,0.32 0.36,0.26 0.69,0.58 0.81,1.02 0.77,2.61 2.11,5.01 2.85,7.62 0.11,0.09 0.22,0.17 0.33,0.27 -0.11,0.6 0.21,1.17 0.25,1.76 0.12,1.46 0.64,2.85 0.83,4.3 0.09,0.45 0.04,0.96 0.36,1.32 -0.04,0.03 -0.13,0.09 -0.17,0.12 0.02,0.36 0.11,0.71 0.11,1.07 -0.78,-1.97 -1.63,-3.91 -2.52,-5.83 -0.88,-1.83 -1.77,-3.67 -2.92,-5.35 -0.27,-0.41 -0.65,-0.74 -0.89,-1.17 0.02,-0.36 0.43,-0.53 0.64,-0.78 -0.2,-0.11 -0.39,-0.22 -0.6,-0.3 -2.07,-0.68 -4.15,-1.35 -6.23,-2.03 -0.55,-0.18 -1.1,-0.43 -1.69,-0.46 -0.09,-0.24 -0.33,-0.53 -0.09,-0.76 0.45,-0.61 0.99,-1.16 1.46,-1.76 0.14,-0.17 0.27,-0.35 0.45,-0.47 0.25,-0.09 0.52,-0.06 0.78,-0.09 0.08,-0.18 0.12,-0.4 0.26,-0.55z"/>
     <path class="fil3" d="M29.46 36.46c0.7,-0.7 1.68,-1.13 2.67,-1.14 0.91,0.03 1.74,0.46 2.5,0.91 1.04,0.61 1.56,1.85 1.56,3.02 -0.06,0.93 -0.37,1.86 -0.97,2.58 -0.47,0.57 -1.13,0.94 -1.72,1.37 -1.95,1.36 -3.94,2.66 -5.82,4.1 -0.71,0.5 -1.41,1.02 -2.11,1.53 -1.12,0.89 -2.03,2.04 -2.55,3.37 -0.72,1.83 -1.42,3.67 -2.13,5.5 -0.18,0.42 -0.25,0.96 -0.75,1.11 -0.19,-0.1 -0.39,-0.19 -0.57,-0.29 -0.76,-0.48 -1.5,-0.97 -2.22,-1.51 -0.35,-0.3 -0.46,-0.81 -0.28,-1.23 0.82,-2.66 1.6,-5.34 2.44,-8 0.4,-1.13 1.03,-2.17 1.85,-3.05 1.93,-1.94 3.83,-3.91 5.73,-5.88 0.81,-0.79 1.59,-1.6 2.38,-2.41z"/>
    </g>
    <g>
     <path class="fil4" d="M29.04 32.59c0.59,0.03 1.13,0.27 1.69,0.46 2.08,0.67 4.16,1.34 6.23,2.03 0.21,0.08 0.4,0.19 0.6,0.3 -0.21,0.25 -0.61,0.42 -0.64,0.78 0.24,0.43 0.62,0.76 0.89,1.17 1.15,1.68 2.04,3.52 2.92,5.35 0.89,1.92 1.74,3.86 2.52,5.83 0.1,3.6 0.03,7.2 0.03,10.8 -0.09,0.12 -0.17,0.24 -0.26,0.37 -1.48,0.03 -2.96,0.04 -4.44,0.07 -2.23,0.19 -4.48,0 -6.71,0.22 -1.39,0.07 -2.79,-0.06 -4.17,0.12 -0.11,-0.06 -0.21,-0.11 -0.32,-0.17 0.71,-3.04 1.02,-6.19 0.68,-9.3 -0.04,-1.11 -0.28,-2.2 -0.4,-3.3 1.89,-1.44 3.88,-2.74 5.82,-4.1 0.59,-0.43 1.25,-0.8 1.72,-1.37 0.61,-0.72 0.91,-1.65 0.97,-2.58 0.01,-1.17 -0.51,-2.42 -1.56,-3.02 -0.77,-0.45 -1.6,-0.88 -2.5,-0.91 -0.99,0.01 -1.97,0.44 -2.67,1.14 -0.79,0.81 -1.57,1.62 -2.38,2.41 0.07,-2.23 0.82,-4.38 1.96,-6.28z"/>
     <path class="fil4" d="M42.12 41.68c-0.04,-0.59 -0.35,-1.16 -0.25,-1.76 1.37,1.14 2.79,2.24 4.17,3.37 0.42,0.38 1.08,0.57 1.58,0.23 1.7,-1.01 3.39,-2.02 5.08,-3.04 0.21,-0.15 0.49,-0.16 0.74,-0.11 0.38,0.16 0.52,0.59 0.71,0.92 0.4,0.79 0.81,1.58 1.2,2.37 0.24,0.39 0.26,0.96 -0.15,1.24 -1.99,1.07 -3.98,2.13 -5.98,3.18 -1.89,0.99 -4.33,0.62 -5.92,-0.78 -0.32,-0.36 -0.28,-0.88 -0.36,-1.32 -0.19,-1.45 -0.71,-2.84 -0.83,-4.3z"/>
    </g>
    <g>
     <g>
      <path class="fil5" d="M86.45 76.95c0.77,-0.5 1.69,-0.7 2.6,-0.71 9.43,0.01 18.86,-0 28.28,0.01 1.66,0.03 3.28,1 4.04,2.49 0.42,0.75 0.55,1.62 0.56,2.48 -0,2.5 0,4.99 0,7.49 0.02,1.29 -0.09,2.58 -0.05,3.87 0,10.64 -0,21.28 0,31.93 -12.55,0 -25.1,0 -37.66,0 0,-11.38 0,-22.77 0,-34.15 -0,-3.22 0,-6.43 -0,-9.65 0.08,-1.51 0.93,-2.96 2.23,-3.75zm12.62 13.53l0 0c0,1.28 -0,2.55 0,3.83 1.25,0.01 2.5,-0 3.75,0 0,4.97 0,9.95 0,14.92 0.01,0.36 -0.06,0.74 0.1,1.08 1.38,-0.04 2.76,-0.02 4.14,-0.01 0.04,-2.04 0.01,-4.08 0.02,-6.11 -0.01,-4.58 0.02,-9.15 -0.01,-13.73 -2.67,0.02 -5.33,-0 -7.99,0.01z"/>
     </g>
    </g>
    <g>
     <g>
      <path class="fil6" d="M23.64 100.36c0.44,0.07 0.89,0.06 1.33,0.02 7.21,-0.03 14.43,0 21.64,-0.02 0.02,8.05 -0,16.09 0.01,24.13 -12.57,-0.01 -25.14,0.02 -37.7,-0.01 0.04,-6.03 0.01,-12.06 0.02,-18.09 0,-1.11 -0.07,-2.27 0.43,-3.3 0.7,-1.57 2.33,-2.64 4.04,-2.72 3.41,-0.01 6.82,0.01 10.23,-0.01zm0.65 6.2l0 0c0,0.74 -0.01,1.48 0.01,2.22 1.19,-0.01 2.37,-0 3.55,-0 -0.5,0.67 -1.07,1.28 -1.6,1.92 -0.21,0.27 -0.52,0.49 -0.6,0.84 -0.03,0.34 0.08,0.69 0.02,1.04 -0.05,0.25 -0.03,0.5 0.07,0.74 0.98,-0.35 2.19,-0.51 3.09,0.12 0.69,0.45 0.8,1.54 0.2,2.11 -0.54,0.53 -1.37,0.53 -2.07,0.42 -0.85,-0.16 -1.56,-0.67 -2.3,-1.06 -0.33,0.71 -0.79,1.37 -1.02,2.12 0.49,0.27 0.96,0.58 1.48,0.79 1.37,0.62 3,0.72 4.41,0.18 1.13,-0.42 2.09,-1.38 2.33,-2.58 0.18,-0.97 0.14,-2.05 -0.44,-2.88 -0.49,-0.8 -1.36,-1.31 -2.27,-1.46 0.06,-0.13 0.11,-0.27 0.21,-0.37 0.7,-0.78 1.38,-1.57 2.07,-2.35 -0.01,-0.6 -0,-1.2 -0,-1.79 -2.38,-0.01 -4.75,0 -7.13,-0z"/>
     </g>
    </g>
   </g>
   <rect class="fil7" x="-0" y="-0" width="130.86" height="130.86"/>
  </g>
 </g>
</svg>
